<?xml version="1.0" standalone="no"?>
<!DOCTYPE svg PUBLIC "-//W3C//DTD SVG 20010904//EN"
 "http://www.w3.org/TR/2001/REC-SVG-20010904/DTD/svg10.dtd">
<svg version="1.0" xmlns="http://www.w3.org/2000/svg"
 width="1280.000000pt" height="720.000000pt" viewBox="0 0 1280.000000 720.000000"
 preserveAspectRatio="xMidYMid meet">
<g transform="translate(0.000000,720.000000) scale(0.100000,-0.100000)"
fill="#000000" stroke="none">
<path d="M4155 5081 c-162 -59 -366 -173 -430 -242 -70 -75 -70 -73 -70 -544
0 -231 -4 -426 -8 -433 -5 -8 -14 -9 -25 -3 -21 10 -135 37 -227 53 -49 8
-275 12 -765 13 -710 1 -844 6 -1200 45 -351 39 -534 82 -612 145 -118 96
-177 116 -272 95 -160 -36 -239 -139 -297 -390 -25 -109 -36 -369 -21 -500 25
-211 83 -361 168 -440 63 -57 124 -80 210 -80 79 0 105 10 169 64 27 24 69 53
92 65 130 66 530 124 1048 151 110 6 467 10 795 9 637 -3 713 1 873 51 34 11
64 17 67 14 3 -3 5 -195 5 -427 0 -491 -1 -482 86 -568 45 -45 89 -73 217
-137 229 -116 321 -138 348 -83 17 34 0 85 -73 211 -108 188 -156 342 -183
585 -17 159 -24 371 -13 378 6 4 282 2 614 -3 2020 -31 2599 -34 3981 -22 963
8 1480 16 1703 27 l320 16 476 84 c312 56 612 116 869 176 433 100 449 104
432 121 -11 11 -489 126 -752 182 -186 40 -993 164 -1140 176 -490 39 -569 42
-1375 50 -1143 12 -2288 12 -3190 -1 -1597 -22 -1920 -25 -1934 -21 -29 10 5
431 49 620 27 114 61 196 137 335 80 143 96 187 83 222 -8 22 -15 25 -57 24
-27 0 -70 -9 -98 -18z"/>
</g>
</svg>
